<?xml version="1.0" encoding="UTF-8" standalone="no"?>
<!-- Created with Inkscape (http://www.inkscape.org/) -->

<svg
   xmlns:dc="http://purl.org/dc/elements/1.1/"
   xmlns:cc="http://creativecommons.org/ns#"
   xmlns:rdf="http://www.w3.org/1999/02/22-rdf-syntax-ns#"
   xmlns:svg="http://www.w3.org/2000/svg"
   xmlns="http://www.w3.org/2000/svg"
   xmlns:sodipodi="http://sodipodi.sourceforge.net/DTD/sodipodi-0.dtd"
   xmlns:inkscape="http://www.inkscape.org/namespaces/inkscape"
   width="99.045708mm"
   height="18.910906mm"
   viewBox="0 0 350.94936 67.007146"
   id="svg4413"
   version="1.1"
   inkscape:version="0.91 r13725"
   sodipodi:docname="logo-neffa-white.svg">
  <defs
     id="defs4415">
    <clipPath
       id="clipPath4204"
       clipPathUnits="userSpaceOnUse">
      <path
         inkscape:connector-curvature="0"
         id="path4206"
         d="M 0,612 792,612 792,0 0,0 0,612 Z" />
    </clipPath>
  </defs>
  <sodipodi:namedview
     id="base"
     pagecolor="#ffffff"
     bordercolor="#666666"
     borderopacity="1.0"
     inkscape:pageopacity="0.0"
     inkscape:pageshadow="2"
     inkscape:zoom="1.979899"
     inkscape:cx="198.82637"
     inkscape:cy="18.493949"
     inkscape:document-units="px"
     inkscape:current-layer="layer1"
     showgrid="false"
     showguides="true"
     inkscape:guide-bbox="true"
     fit-margin-top="0"
     fit-margin-left="0"
     fit-margin-right="0"
     fit-margin-bottom="0"
     inkscape:window-width="1527"
     inkscape:window-height="910"
     inkscape:window-x="174"
     inkscape:window-y="163"
     inkscape:window-maximized="0" />
  <metadata
     id="metadata4418">
    <rdf:RDF>
      <cc:Work
         rdf:about="">
        <dc:format>image/svg+xml</dc:format>
        <dc:type
           rdf:resource="http://purl.org/dc/dcmitype/StillImage" />
        <dc:title></dc:title>
      </cc:Work>
    </rdf:RDF>
  </metadata>
  <g
     inkscape:label="Layer 1"
     inkscape:groupmode="layer"
     id="layer1"
     transform="translate(-32.1829,-12.840966)">
    <g
       style="font-style:normal;font-variant:normal;font-weight:500;font-stretch:normal;font-size:95.9987793px;line-height:125%;font-family:'ITC Benguiat Std';-inkscape-font-specification:'ITC Benguiat Std, Medium';text-align:start;letter-spacing:0px;word-spacing:0px;writing-mode:lr-tb;text-anchor:start;fill:#ffffff;fill-opacity:1;stroke:none;stroke-width:1px;stroke-linecap:butt;stroke-linejoin:miter;stroke-opacity:1"
       id="text4178">
      <path
         d="m 146.58049,39.048633 -18.04777,-18.04777 c -1.43998,-1.439982 -1.91997,-1.919976 -1.91997,-2.975963 0,-1.055986 0.67199,-1.53598 1.91997,-1.823976 l 0,-1.919976 -29.855618,0 0,1.919976 c 5.087938,1.151985 5.759928,2.879963 5.759928,10.655864 l 0,38.879506 c 0,7.775901 -0.76799,9.599878 -5.759928,10.655864 l 0,1.919976 18.911758,0 0,-1.919976 c -4.60794,-1.247984 -5.56793,-2.399969 -5.56793,-10.655864 l 0,-41.759469 32.06359,29.759621 c 1.72798,1.63198 2.49597,3.263959 2.49597,7.007911 l 0,4.991937 c 0,8.447892 -1.05598,9.311881 -5.47193,10.655864 l 0,1.919976 19.19976,0 0,-1.919976 c -5.18394,-0.959988 -5.85593,-2.975962 -5.85593,-10.655864 l 0,-38.879506 c 0,-7.583903 0.67199,-9.599878 5.85593,-10.655864 l 0,-1.919976 -19.19976,0 0,1.919976 c 4.41595,1.439981 5.47193,2.207972 5.47193,10.655864 l 0,12.191845 z"
         id="path5060"
         inkscape:connector-curvature="0" />
      <path
         d="m 223.63449,54.792433 -1.34399,-0.671992 c -1.15198,2.111974 -3.07196,5.951925 -8.54389,11.135859 -3.07196,2.783964 -8.83188,7.391906 -19.10375,7.391906 -9.79188,0 -10.07988,-4.127948 -10.07988,-10.27187 l 0,-22.367715 5.18394,0 c 10.84786,0 13.34383,4.799939 16.22379,10.751863 l 1.34399,-0.287996 -4.03195,-23.711699 -1.34399,0.191998 c -0.19199,5.759927 -2.30397,7.295907 -9.59987,7.295907 l -7.77591,0 0,-5.951924 c 0,-5.087936 1.05599,-8.255895 8.83189,-8.255895 15.5518,0 21.21573,10.655864 23.32771,14.879811 l 1.34398,-0.575993 -4.60794,-21.503727 c -1.05599,0.863989 -1.72798,1.439982 -5.18394,1.439982 l -43.77544,0 0,1.919976 c 5.18393,1.055986 5.75993,2.975962 5.75993,10.655864 l 0,38.879506 c 0,7.679902 -0.576,9.599878 -5.75993,10.655864 l 0,1.919976 47.1354,0 c 1.05599,0 1.82398,0.191997 2.39997,0.479994 0.57599,0.287996 1.05599,0.671991 1.34398,1.055986 l 8.2559,-25.055681 z"
         id="path5062"
         inkscape:connector-curvature="0" />
      <path
         d="m 266.28541,51.912469 -3.64796,-24.767685 -1.24798,0.191998 c 0,6.431918 -2.97596,7.295907 -8.0639,7.295907 l -9.69587,0 0,-6.815913 c 0,-4.70394 0,-7.583904 9.50388,-7.583904 15.3598,0 20.35174,9.887875 22.8477,14.687814 l 1.24799,-0.575993 -4.51194,-21.503727 c -0.76799,0.863989 -1.24799,1.439982 -3.93595,1.439982 l -45.21543,0 0,1.919976 c 5.18394,1.055986 5.75993,3.071961 5.75993,10.655864 l 0,38.879506 c 0,7.679902 -0.57599,9.599878 -5.75993,10.655864 l 0,1.919976 26.39967,0 0,-1.919976 c -5.85593,-0.671991 -6.33592,-3.455956 -6.33592,-10.655864 l 0,-25.343678 5.37593,0 c 11.51985,0 14.39981,5.855926 15.93579,11.711851 l 1.34399,-0.191998 z"
         id="path5064"
         inkscape:connector-curvature="0" />
      <path
         d="m 319.8197,51.912469 -3.64795,-24.767685 -1.24799,0.191998 c 0,6.431918 -2.97596,7.295907 -8.06389,7.295907 l -9.69588,0 0,-6.815913 c 0,-4.70394 0,-7.583904 9.50388,-7.583904 15.3598,0 20.35174,9.887875 22.84771,14.687814 l 1.24798,-0.575993 -4.51194,-21.503727 c -0.76799,0.863989 -1.24798,1.439982 -3.93595,1.439982 l -45.21542,0 0,1.919976 c 5.18393,1.055986 5.75992,3.071961 5.75992,10.655864 l 0,38.879506 c 0,7.679902 -0.57599,9.599878 -5.75992,10.655864 l 0,1.919976 26.39966,0 0,-1.919976 c -5.85593,-0.671991 -6.33592,-3.455956 -6.33592,-10.655864 l 0,-25.343678 5.37593,0 c 11.51986,0 14.39982,5.855926 15.9358,11.711851 l 1.34398,-0.191998 z"
         id="path5066"
         inkscape:connector-curvature="0" />
      <path
         d="m 383.13227,78.312134 0,-1.919976 c -3.93595,-0.959988 -4.51195,-2.591967 -7.00791,-9.40788 L 361.43654,25.992799 c -0.38399,-0.959988 -1.72798,-5.663928 -1.72798,-6.623916 0,-2.591967 1.82398,-2.975962 2.59197,-3.167959 l 0,-1.919976 -24.28769,0 0,1.919976 c 2.59197,0.479993 2.59197,2.687965 2.59197,3.071961 0,0.863989 -0.86399,3.839951 -1.43998,5.279932 l -15.45581,39.551497 c -3.35996,8.351894 -4.89594,11.135859 -9.40788,12.287844 l 0,1.919976 20.44774,0 0,-1.919976 c -1.63198,-0.191997 -5.18393,-0.76799 -5.18393,-4.511942 0,-2.303971 0.67199,-4.415944 1.53598,-6.527917 l 5.08793,-12.863837 c 3.83995,0.096 10.94386,0.383995 18.04777,5.663928 6.33592,4.799939 7.10391,10.175871 7.10391,12.479841 0,4.799939 -3.26396,5.471931 -4.89593,5.759927 l 0,1.919976 26.68766,0 z m -37.05553,-52.895328 9.40788,25.631674 c -2.59197,-1.919975 -5.75993,-4.223946 -12.95984,-5.47193 -1.63198,-0.287996 -2.78396,-0.287996 -4.22394,-0.287996 l 7.7759,-19.871748 z"
         id="path5068"
         inkscape:connector-curvature="0" />
    </g>
    <g
       transform="matrix(0.14773173,0,0,-0.14773173,4.8348557,91.40025)"
       inkscape:label="logo"
       id="g4198"
       style="fill:#ffffff;fill-opacity:1">
      <g
         id="g4200"
         style="fill:#ffffff;fill-opacity:1">
        <g
           clip-path="url(#clipPath4204)"
           id="g4202"
           style="fill:#ffffff;fill-opacity:1">
          <g
             transform="translate(335.2011,386.7118)"
             id="g4208"
             style="fill:#ffffff;fill-opacity:1">
            <path
               inkscape:connector-curvature="0"
               id="path4210"
               style="fill:#ffffff;fill-opacity:1;fill-rule:nonzero;stroke:none"
               d="m 0,0 c -6,3.89 -12.042,7.718 -17.955,11.735 -0.888,0.603 -1.845,2.246 -1.634,3.139 1.494,6.32 -0.312,12.336 -1.612,18.314 -3.571,16.427 -6.648,33.039 -14.93,48.012 -1.242,2.245 -2.484,4.49 -3.976,7.187 -7.477,-5.621 -14.494,-10.897 -21.596,-16.237 0.825,-1.305 1.285,-2.083 1.793,-2.829 8.614,-12.644 14.673,-26.395 17.773,-41.395 0.482,-2.335 0.466,-4.774 0.74,-7.826 -19.156,3.196 -38.429,1.427 -55.192,13.529 -6.023,-10.903 -11.796,-21.351 -17.894,-32.389 3.858,-0.672 6.638,-1.15 9.415,-1.642 20.33,-3.596 40.707,-6.941 61.45,-6.061 4.987,0.211 8,-1.225 10.322,-5.673 2.457,-4.705 5.703,-8.998 8.78,-13.742 -14.934,-2.642 -29.27,-5.179 -43.839,-7.757 7.344,-12.796 17.601,-22.449 28.239,-32.986 -7.653,-0.36 -14.252,-0.731 -20.856,-0.9 -0.791,-0.02 -1.718,0.949 -2.397,1.642 -4.501,4.591 -9.247,8.983 -13.362,13.902 -12.24,14.631 -29.534,19.817 -46.527,25.681 -11.411,-26.993 -8.172,-96.121 5.536,-120.262 8.249,4.937 16.237,10.403 24.825,14.66 8.405,4.166 14.884,10.182 20.623,17.278 2.742,3.39 5.826,6.638 7.867,10.429 3.102,5.764 6.964,7.745 13.389,5.674 4.456,-1.436 9.262,-1.783 14.295,-2.686 -2.199,-3.12 -4.145,-5.676 -5.871,-8.372 -5.252,-8.203 -10.531,-16.392 -15.559,-24.731 -1.839,-3.05 -1.309,-4.013 2.256,-4.541 5.432,-0.805 10.912,-1.347 16.389,-1.768 7.521,-0.58 15.059,-0.942 23.549,-1.455 -4.454,-6.081 -8.457,-11.619 -12.581,-17.065 -0.438,-0.579 -1.589,-0.893 -2.399,-0.874 -24.641,0.593 -48.302,-4.055 -71.137,-13.183 -0.995,-0.398 -1.961,-0.868 -3.617,-1.605 5.995,-8.607 11.715,-16.766 17.364,-24.973 1.158,-1.684 2.235,-1.732 4.001,-0.827 9.168,4.703 18.331,9.426 27.651,13.813 4.949,2.329 10.124,4.278 15.359,5.865 4.457,1.35 6.424,-0.523 6.394,-5.245 -0.005,-0.911 -0.1,-1.834 -0.271,-2.729 -2.799,-14.593 -7.773,-28.443 -14.309,-41.757 -0.748,-1.524 -1.502,-3.045 -2.627,-5.326 10.445,-6.468 20.715,-12.829 31.369,-19.427 0.882,2.399 1.49,3.976 2.045,5.572 5.228,15.047 10.738,30.023 8.969,46.447 -0.416,3.866 0.134,7.851 -0.434,11.681 -1.216,8.198 1.016,14.6 8.031,19.42 3.12,2.144 5.662,5.128 9.213,8.423 4.665,-15.616 9.061,-30.331 13.503,-45.197 12.358,6.739 21.921,16.186 31.094,26.505 3.179,-5.641 3.673,-11.219 3.608,-17.043 -0.055,-4.902 -1.851,-8.516 -5.352,-11.938 -15.337,-14.991 -27.738,-32.053 -35.571,-52.192 -0.512,-1.316 -1.097,-2.603 -1.728,-4.095 43.924,-11.98 86.512,-9.65 128.883,6.902 -1.475,1.717 -2.652,3.085 -3.828,4.454 -5.309,6.184 -10.62,12.365 -15.925,18.553 -3.654,4.263 -6.739,9.242 -11.063,12.655 -9.341,7.374 -19.33,13.926 -29.006,20.88 -0.894,0.642 -2.12,1.813 -2.051,2.644 0.58,7.022 1.425,14.023 2.219,21.289 15.026,-5.434 27.583,-14.811 41.254,-22.34 1.695,13.014 3.345,25.688 5.048,38.761 6.658,-3.42 12.505,-6.326 18.226,-9.463 0.885,-0.485 1.658,-2.015 1.688,-3.083 0.161,-5.854 -0.106,-11.721 0.119,-17.57 0.269,-6.976 -0.153,-14.21 1.591,-20.842 2.748,-10.451 7.024,-20.503 10.727,-30.696 0.602,-1.657 1.589,-3.175 2.68,-5.309 9.426,6.354 18.432,12.425 27.67,18.653 -12.764,14.738 -14.498,33.093 -20.356,50.005 1.916,0.724 3.174,1.281 4.481,1.679 7.796,2.374 15.526,2.386 23.268,-0.42 9.956,-3.608 19.972,-7.051 30.49,-10.751 4.874,8.089 9.933,16.484 15.176,25.185 -5.204,1.599 -9.685,2.961 -14.156,4.353 -15.538,4.837 -31.231,8.29 -47.67,5.758 -4.869,-0.75 -9.763,-1.392 -14.669,-1.816 -1.924,-0.167 -4.698,-0.346 -5.739,0.755 -5.522,5.833 -8.95,13.056 -12.732,20.428 1.364,0.279 2.242,0.466 3.122,0.638 12.123,2.368 24.317,4.427 36.347,7.197 9.583,2.206 9.909,3.793 3.264,11.138 -6.235,6.892 -12.727,13.553 -19.016,20.399 -1.494,1.626 -2.626,3.584 -3.924,5.389 0.102,0.434 0.205,0.869 0.307,1.303 4.556,0.706 9.154,1.215 13.659,2.167 6.568,1.387 11.517,-0.836 15.455,-6.028 0.822,-1.083 1.956,-1.935 2.968,-2.87 12.828,-11.848 25.634,-23.735 41.712,-31.233 4.316,-2.012 8.716,-3.846 13.08,-5.763 12.499,30.826 10.531,99.993 -3.375,123.51 -5.208,-3.561 -10.363,-7.182 -15.614,-10.659 -12.437,-8.235 -25.161,-16.09 -34.249,-28.385 -3.205,-4.337 -6.638,-8.506 -10.045,-12.688 -0.574,-0.705 -1.59,-1.596 -2.328,-1.534 -6.959,0.589 -13.927,1.189 -20.839,2.161 -3.685,0.518 -4.151,1.661 -2.193,4.861 3.109,5.082 6.467,10.016 9.823,14.942 4.586,6.729 9.323,13.357 13.861,20.118 0.751,1.12 1.437,2.954 1.008,3.98 -0.331,0.793 -2.447,1.149 -3.777,1.168 -7.349,0.107 -14.713,-0.211 -22.049,0.131 -6.381,0.297 -12.775,1.01 -19.076,2.066 -3.365,0.564 -3.623,2.082 -1.5,4.803 3.885,4.978 7.734,9.989 11.816,14.802 0.977,1.151 2.764,2.118 4.257,2.244 7.879,0.669 15.794,0.917 23.677,1.551 9.151,0.735 18.089,2.061 26.234,7.044 7.193,4.4 14.851,8.04 22.791,12.275 -4.612,6.408 -9,12.503 -13.195,18.332 -9.236,-5.171 -17.64,-11.007 -26.892,-14.742 -9.422,-3.804 -19.803,-3.403 -29.738,-2.669 2.938,11.406 5.35,22.357 8.653,33.031 2.202,7.119 5.675,13.844 8.862,21.418 -6.945,4.324 -14.664,9.13 -22.873,14.241 -5.385,-12.454 -11.027,-23.999 -15.392,-36.008 -4.489,-12.351 -3.539,-25.307 -1.33,-38.08 0.329,-1.901 0.05,-2.895 -1.525,-3.944 -4.773,-3.18 -9.435,-6.528 -14.166,-9.771 -0.982,-0.673 -2.08,-1.176 -3.367,-1.893 -4.528,15.163 -5.946,30.667 -11.905,46.276 C 98.953,43.533 87.138,33.876 74.971,23.931 c -0.84,6.612 -1.478,12.843 -2.491,19.013 -0.394,2.393 0.436,3.853 1.942,5.425 5.796,6.052 11.642,12.064 17.23,18.305 8.343,9.316 16.855,18.547 22.841,29.665 2.692,5 5.101,10.187 4.903,16.289 -42.75,11.303 -84.399,8.878 -125.652,-7.085 C 0.424,95.369 6.928,85.784 13.08,75.978 16.882,69.918 21.511,64.728 27.552,61.027 35.149,56.373 43.012,52.152 51.073,47.566 49.746,40.088 48.321,32.059 46.843,23.735 32.441,30.739 18.957,38.703 3.745,44.422 1.317,29.579 1.227,15.267 0,0 m 67.49,139.261 c 118.471,0.093 218.74,-96.799 216.721,-221.183 -1.887,-116.25 -96.945,-214.394 -219.964,-213.118 -118.131,1.225 -217.416,98.646 -214.255,223.277 2.917,114.983 97.071,211.104 217.498,211.024" />
          </g>
          <g
             transform="translate(306.6841,524.8442)"
             id="g4212"
             style="fill:#ffffff;fill-opacity:1" />
          <g
             transform="translate(193.0903,494.4101)"
             id="g4216"
             style="fill:#ffffff;fill-opacity:1" />
          <g
             transform="translate(410.3016,544.9882)"
             id="g4220"
             style="fill:#ffffff;fill-opacity:1" />
          <g
             transform="translate(552.8038,489.9833)"
             id="g4224"
             style="fill:#ffffff;fill-opacity:1" />
          <g
             transform="translate(635.6535,339.2053)"
             id="g4228"
             style="fill:#ffffff;fill-opacity:1" />
          <g
             transform="translate(598.544,497.9464)"
             id="g4232"
             style="fill:#ffffff;fill-opacity:1" />
          <g
             transform="translate(586.3456,109.9885)"
             id="g4236"
             style="fill:#ffffff;fill-opacity:1" />
          <g
             transform="translate(658.532,314.2573)"
             id="g4240"
             style="fill:#ffffff;fill-opacity:1" />
          <g
             transform="translate(139.3698,330.873)"
             id="g4244"
             style="fill:#ffffff;fill-opacity:1" />
          <g
             transform="translate(172.6749,259.662)"
             id="g4248"
             style="fill:#ffffff;fill-opacity:1" />
          <g
             transform="translate(455.2332,570.7229)"
             id="g4252"
             style="fill:#ffffff;fill-opacity:1" />
          <g
             transform="translate(497.9624,61.7055)"
             id="g4256"
             style="fill:#ffffff;fill-opacity:1" />
          <g
             transform="translate(544.1596,107.4265)"
             id="g4260"
             style="fill:#ffffff;fill-opacity:1" />
          <g
             transform="translate(237.6548,125.6211)"
             id="g4264"
             style="fill:#ffffff;fill-opacity:1" />
          <g
             transform="translate(524.4344,544.0218)"
             id="g4268"
             style="fill:#ffffff;fill-opacity:1" />
          <g
             transform="translate(645.8559,210.4753)"
             id="g4272"
             style="fill:#ffffff;fill-opacity:1" />
          <g
             transform="translate(351.6294,66.4204)"
             id="g4276"
             style="fill:#ffffff;fill-opacity:1" />
          <g
             transform="translate(462.2154,68.5796)"
             id="g4280"
             style="fill:#ffffff;fill-opacity:1" />
          <g
             transform="translate(252.4153,523.1082)"
             id="g4284"
             style="fill:#ffffff;fill-opacity:1" />
          <g
             transform="translate(174.5576,150.6363)"
             id="g4288"
             style="fill:#ffffff;fill-opacity:1" />
          <g
             transform="translate(346.1336,582.2687)"
             id="g4292"
             style="fill:#ffffff;fill-opacity:1" />
          <g
             transform="translate(302.4963,50.5816)"
             id="g4296"
             style="fill:#ffffff;fill-opacity:1" />
          <g
             transform="translate(601.9512,163.6628)"
             id="g4300"
             style="fill:#ffffff;fill-opacity:1" />
          <g
             transform="translate(191.1471,207.2036)"
             id="g4304"
             style="fill:#ffffff;fill-opacity:1" />
          <g
             transform="translate(171.0492,352.7164)"
             id="g4308"
             style="fill:#ffffff;fill-opacity:1" />
          <g
             transform="translate(271.2369,108.5334)"
             id="g4312"
             style="fill:#ffffff;fill-opacity:1" />
          <g
             transform="translate(670.0755,234.9829)"
             id="g4316"
             style="fill:#ffffff;fill-opacity:1" />
          <g
             transform="translate(399.2988,31.4706)"
             id="g4320"
             style="fill:#ffffff;fill-opacity:1" />
          <g
             transform="translate(476.2742,539.1853)"
             id="g4324"
             style="fill:#ffffff;fill-opacity:1" />
          <g
             transform="translate(131.5573,285.7773)"
             id="g4328"
             style="fill:#ffffff;fill-opacity:1" />
          <g
             transform="translate(293.8911,102.066)"
             id="g4332"
             style="fill:#ffffff;fill-opacity:1" />
          <g
             transform="translate(602.1948,187.6149)"
             id="g4336"
             style="fill:#ffffff;fill-opacity:1" />
          <g
             transform="translate(633.929,275.1088)"
             id="g4340"
             style="fill:#ffffff;fill-opacity:1" />
          <g
             transform="translate(186.8715,436.019)"
             id="g4344"
             style="fill:#ffffff;fill-opacity:1" />
          <g
             transform="translate(622.8608,436.9938)"
             id="g4348"
             style="fill:#ffffff;fill-opacity:1" />
          <g
             transform="translate(451.1301,198.8691)"
             id="g4352"
             style="fill:#ffffff;fill-opacity:1">
            <path
               inkscape:connector-curvature="0"
               id="path4354"
               style="fill:#ffffff;fill-opacity:1;fill-rule:nonzero;stroke:none"
               d="m 0,0 c -4.877,4.291 -8.936,8.58 -13.684,11.877 -7.889,5.478 -16.243,10.282 -24.354,15.446 -3.087,1.965 -6.04,4.141 -8.759,6.016 0.792,3.725 1.84,7.123 2.175,10.59 0.528,5.464 -3.849,10.599 -9.264,11.436 -4.513,0.698 -7.897,-1.957 -7.798,-6.841 0.074,-3.607 0.818,-7.287 1.834,-10.768 1.453,-4.981 0.712,-8.441 -3.449,-12.314 -8.033,-7.477 -15.115,-15.971 -22.657,-23.982 -2.088,-2.217 -4.406,-4.218 -6.966,-6.649 0,2.518 -0.138,4.767 0.023,6.993 0.758,10.447 -1.528,20.483 -3.716,30.582 -1.375,6.345 -2.035,12.846 -2.966,18.958 3.347,1.892 6.4,3.274 9.059,5.198 4.58,3.315 5.643,9.17 2.932,14.126 -2.447,4.473 -6.97,5.518 -10.518,1.864 -3.16,-3.255 -5.773,-7.083 -8.333,-10.858 -1.365,-2.013 -2.759,-2.762 -5.25,-2.862 -15.079,-0.606 -30.147,-1.469 -45.354,-2.254 3.836,4.205 7.916,8.326 11.568,12.796 2.737,3.349 4.966,7.12 7.343,10.755 4.951,7.571 9.85,15.176 14.581,22.475 3.954,-0.949 7.325,-2.082 10.785,-2.513 5.362,-0.669 10.478,3.42 11.521,8.728 1.075,5.47 -2.453,9.054 -8.608,8.268 -4.864,-0.621 -9.669,-1.742 -14.475,-2.761 -3.395,-0.719 -5.692,0.133 -8.353,2.788 -7.779,7.762 -16.146,14.935 -24.273,22.349 -2.531,2.308 -5.033,4.649 -7.534,7.546 19.557,-2.183 37.561,6.074 56.404,7.48 1.775,-2.993 3.394,-6.125 5.392,-8.993 2.701,-3.877 6.767,-4.575 11.059,-3.632 3.126,0.687 6.369,2.344 6.51,5.748 0.097,2.364 -1.296,5.404 -3.04,7.091 -2.92,2.825 -6.617,4.864 -10.058,7.127 -1.736,1.142 -2.442,2.322 -2.551,4.648 -0.483,10.282 -1.414,20.543 -2.202,30.811 -0.364,4.749 -0.773,9.495 -1.25,15.326 2.617,-2.391 4.431,-4.043 6.239,-5.7 6.018,-5.515 12.373,-10.449 19.659,-14.353 7.348,-3.937 14.155,-8.883 21.19,-13.381 -0.863,-3.001 -1.756,-5.582 -2.339,-8.23 -1.456,-6.61 2.123,-12.216 8.668,-13.8 4.324,-1.047 8.167,1.483 8.063,5.942 -0.096,4.062 -1.045,8.117 -1.77,12.147 -0.931,5.171 -0.276,9.449 3.859,13.519 8.322,8.19 16.049,16.985 24.031,25.521 1.92,2.053 3.877,4.071 6.29,6.6 0.068,-1.526 0.159,-2.286 0.126,-3.041 -0.497,-11.415 0.757,-22.593 3.634,-33.689 1.601,-6.176 2.184,-12.624 3.041,-18.975 0.097,-0.718 -0.833,-1.876 -1.589,-2.354 -2.41,-1.523 -5.173,-2.547 -7.416,-4.265 -4.231,-3.242 -5.223,-8.866 -2.804,-13.635 2.3,-4.533 6.813,-5.791 10.437,-2.318 3.016,2.89 5.544,6.397 7.792,9.946 1.779,2.807 3.499,3.869 7.086,3.85 8.333,-0.044 16.675,0.836 25.008,1.416 6.243,0.435 12.478,0.986 19.58,1.554 -3.742,-4.094 -7.096,-7.349 -9.951,-10.995 -3.375,-4.31 -6.405,-8.9 -9.432,-13.47 -4.927,-7.435 -9.729,-14.953 -14.268,-21.95 -4.392,0.913 -8.027,2.104 -11.721,2.333 -5.396,0.334 -10.628,-4.921 -10.945,-10.315 -0.209,-3.543 2.518,-6.776 6.39,-6.628 4.071,0.156 8.177,0.862 12.144,1.832 3.638,0.888 7.096,0.02 9.089,-2.394 8.419,-10.2 19.203,-17.733 28.853,-26.533 1.847,-1.684 3.653,-3.412 6.333,-5.919 -4.65,0 -8.26,-0.115 -11.86,0.023 -9.902,0.379 -19.156,-3.001 -28.688,-4.772 -4.838,-0.898 -9.717,-1.571 -14.567,-2.405 -1.85,-0.318 -2.806,0.233 -3.6,2.082 -1.072,2.495 -2.462,4.955 -4.178,7.051 -3.421,4.18 -9.865,4.844 -14.331,1.802 -3.724,-2.538 -4.657,-6.479 -1.488,-9.662 3.188,-3.201 7.009,-5.866 10.855,-8.284 2.542,-1.598 3.45,-3.272 3.554,-6.295 0.306,-8.899 1.06,-17.784 1.713,-26.668 C -1.108,12.303 -0.549,6.434 0,0" />
          </g>
        </g>
      </g>
    </g>
  </g>
</svg>
